PathFileType	4	(X/Y/Z)	4_coords_data.trc
DataRate	CameraRate	NumFrames	NumMarkers	Units	OrigDataRate	OrigDataStartFrame	OrigNumFrames
30.0	30.0	7	21	m	30.0	21	50
Frame#	Time	THUMB_TIP	THUMB_IP	THUMB_MCP	THUMB_CMC	INDEX_TIP	INDEX_DIP	INDEX_PIP	INDEX_MCP	MIDDLE_TIP	MIDDLE_DIP	MIDDLE_PIP	MIDDLE_MCP	RING_TIP	RING_DIP	RING_PIP	RING_MCP	PINKY_TIP	PINKY_DIP	PINKY_PIP	PINKY_MCP	WRIST
X1	Y1	Z1	X2	Y2	Z2	X3	Y3	Z3	X4	Y4	Z4	X5	Y5	Z5	X6	Y6	Z6	X7	Y7	Z7	X8	Y8	Z8	X9	Y9	Z9	X10	Y10	Z10	X11	Y11	Z11	X12	Y12	Z12	X13	Y13	Z13	X14	Y14	Z14	X15	Y15	Z15	X16	Y16	Z16	X17	Y17	Z17	X18	Y18	Z18	X19	Y19	Z19	X20	Y20	Z20	X21	Y21	Z21
20	0.6666666666666666	-0.05803239822387695	-0.1349759979248047	1.0793900146484374	-0.05368299865722656	-0.10675	1.082530029296875	-0.0688594970703125	-0.08338839721679688	1.0978499755859374	-0.07549659729003906	-0.04499319839477539	1.107260009765625	-0.033028499603271484	-0.10098200225830078	0.9720139770507813	-0.041182399749755856	-0.09325499725341797	0.9934609985351562	-0.050126499176025394	-0.08465049743652343	1.0155	-0.068970703125	-0.06992160034179687	1.048949951171875	-0.02609280014038086	-0.055876800537109375	0.9477550048828125	-0.03375979995727539	-0.05402989959716797	0.973906005859375	-0.04563010025024414	-0.05150839996337891	1.00222998046875	-0.06743240356445312	-0.04592770004272461	1.0381199951171876	-0.025721799850463866	-0.018878000259399414	0.947281005859375	-0.034403499603271485	-0.019452600479125975	0.9724169921875	-0.046184600830078124	-0.020681900024414064	0.9995490112304688	-0.06369169998168946	-0.022078800201416015	1.03706005859375	-0.027047000885009765	0.029094100952148438	0.9793980102539063	-0.038496700286865235	0.02191080093383789	0.996697021484375	-0.04958620071411133	0.014403100013732911	1.0131500244140625	-0.061793701171875	0.0009141579866409301	1.0395699462890624	-0.10596600341796875	-0.013446100234985351	1.12127001953125
21	0.7	-0.058271900177001956	-0.1349980010986328	1.079510009765625	-0.05391640090942383	-0.10681800079345703	1.0825899658203124	-0.06894200134277344	-0.08344219970703125	1.0979599609375	-0.07550980377197265	-0.045047901153564454	1.10727001953125	-0.033145000457763675	-0.10109700012207032	0.9722039794921875	-0.04130130004882813	-0.09335559844970703	0.9935999755859375	-0.050235198974609374	-0.08473030090332032	1.0156400146484375	-0.06892639923095703	-0.06995079803466797	1.0488499755859375	-0.02613520050048828	-0.055989200592041016	0.9478839721679687	-0.0338401985168457	-0.05412289810180664	0.974051025390625	-0.04568730163574219	-0.051587501525878904	1.0023800048828124	-0.06755290222167969	-0.04597930145263672	1.038219970703125	-0.025693799972534178	-0.018988100051879883	0.9474099731445312	-0.03442050170898438	-0.01954730033874512	0.9725139770507812	-0.04623970031738281	-0.020747100830078125	0.9996630249023437	-0.06376539993286133	-0.022134199142456054	1.0372099609375	-0.026994800567626952	0.029045000076293945	0.9795549926757813	-0.03846829986572266	0.021868200302124025	0.9968809814453125	-0.04954079818725586	0.014368499755859375	1.0133200073242188	-0.0617578010559082	0.0008841369748115541	1.0396800537109374	-0.10583699798583984	-0.013481499671936036	1.1214200439453126
22	0.7333333333333333	-0.058344200134277345	-0.13502699279785157	1.0796700439453124	-0.05401969909667969	-0.10679599761962891	1.0827900390625	-0.06895850372314453	-0.08343129730224609	1.0980699462890624	-0.07562110137939453	-0.044977901458740234	1.1076400146484375	-0.03331949996948242	-0.1012040023803711	0.9723209838867187	-0.04147850036621094	-0.09345709991455078	0.9937059936523438	-0.05038410186767578	-0.08480609893798828	1.01572998046875	-0.06924150085449218	-0.07001399993896484	1.0490400390625	-0.02639780044555664	-0.056189300537109375	0.9479760131835937	-0.03404330062866211	-0.054295501708984374	0.974114990234375	-0.04588079833984375	-0.05170769882202148	1.0024400024414062	-0.06771150207519532	-0.0460265007019043	1.0384000244140625	-0.025996099472045897	-0.01932430076599121	0.947427978515625	-0.03466780090332031	-0.019818899154663085	0.9725339965820312	-0.04642940139770508	-0.020931400299072266	0.999718994140625	-0.06385589981079101	-0.022208099365234376	1.037280029296875	-0.027176000595092772	0.028793399810791015	0.9794749755859375	-0.03862820053100586	0.021672500610351562	0.9967869873046875	-0.04971269989013672	0.014220100402832031	1.0133099975585937	-0.06181909942626953	0.0008111799955368041	1.0398199462890625	-0.10593699645996094	-0.013386899948120118	1.1215400390625
23	0.7666666666666667	-0.058551998138427735	-0.13501100158691406	1.0798499755859374	-0.054172000885009765	-0.10682900238037109	1.0829000244140625	-0.06920919799804688	-0.08339710235595703	1.098300048828125	-0.07572080230712891	-0.044975601196289065	1.107780029296875	-0.033479301452636716	-0.10132099914550781	0.9724970092773437	-0.041635101318359374	-0.0935374984741211	0.993885009765625	-0.05054079818725586	-0.08486129760742188	1.0158699951171875	-0.06919120025634766	-0.07004830169677734	1.0490699462890625	-0.026576700210571288	-0.056396499633789066	0.9481179809570313	-0.034202499389648436	-0.05446849822998047	0.9742160034179688	-0.04600640106201172	-0.05184090042114258	1.00252001953125	-0.0677479019165039	-0.04603329849243164	1.038449951171875	-0.026186800003051756	-0.019639499664306642	0.9474979858398438	-0.03482889938354492	-0.020053800582885743	0.972625	-0.046543201446533206	-0.021087499618530275	0.9997930297851563	-0.06389739990234375	-0.02224920082092285	1.0373299560546876	-0.02741160011291504	0.028579500198364256	0.9794140014648437	-0.0388025016784668	0.021515499114990233	0.9967630004882813	-0.0498583984375	0.0141048002243042	1.0132899780273437	-0.0619208984375	0.000771919012069702	1.039969970703125	-0.10595700073242187	-0.013325900077819823	1.1216199951171875
24	0.8	-0.05881729888916016	-0.13494900512695313	1.0796500244140625	-0.054326698303222655	-0.10679100036621093	1.082800048828125	-0.06928790283203125	-0.0834134979248047	1.0982900390625	-0.07577980041503907	-0.04502730178833008	1.1078199462890626	-0.03334019851684571	-0.10112100219726562	0.9725819702148437	-0.041569599151611326	-0.09337550354003907	0.9939970092773438	-0.05052840042114258	-0.08473639678955078	1.016010009765625	-0.06940380096435547	-0.06997000122070313	1.04927001953125	-0.026505599975585936	-0.056175201416015626	0.948208984375	-0.034208900451660154	-0.054282001495361325	0.9743289794921876	-0.04604079818725586	-0.05168930053710938	1.00272998046875	-0.06782199859619141	-0.045988201141357425	1.038489990234375	-0.02617379951477051	-0.019438299179077148	0.94764697265625	-0.03482509994506836	-0.01989039993286133	0.9727789916992188	-0.04654159927368164	-0.020963499069213867	0.9999520263671875	-0.06401779937744141	-0.022177600860595705	1.037550048828125	-0.027324199676513672	0.028799400329589844	0.9796890258789063	-0.03873440170288086	0.0216875	0.9970260009765625	-0.049799198150634764	0.014222599983215333	1.0135499877929688	-0.06189599990844727	0.000820104002952575	1.04	-0.10610800170898438	-0.013352800369262695	1.12177001953125
25	0.8333333333333334	-0.05875839996337891	-0.1347729949951172	1.079449951171875	-0.054338699340820314	-0.1066510009765625	1.0826600341796875	-0.06920249938964844	-0.08333409881591797	1.0983199462890625	-0.075731201171875	-0.04496780014038086	1.1079100341796875	-0.032830799102783206	-0.10069400024414063	0.972780029296875	-0.04119070053100586	-0.0930011978149414	0.9941199951171875	-0.050313201904296875	-0.08447380065917968	1.0160800170898439	-0.06935250091552735	-0.06984329986572266	1.0493800048828126	-0.02634819984436035	-0.05588079833984375	0.948322998046875	-0.03409170150756836	-0.05400350189208984	0.9744669799804687	-0.04598899841308594	-0.05148249816894531	1.002760009765625	-0.06787460327148437	-0.045781200408935546	1.03875	-0.026108299255371094	-0.019152000427246095	0.9477269897460937	-0.03478279876708985	-0.01962700080871582	0.9728489990234375	-0.046542900085449215	-0.020747499465942384	1.0000499877929687	-0.06396549987792968	-0.022052900314331055	1.0375	-0.02740410041809082	0.029038000106811523	0.979844970703125	-0.03878070068359375	0.02187260055541992	0.9971489868164063	-0.04982099914550781	0.014380399703979491	1.0136500244140625	-0.06194200134277344	0.0009300339818000791	1.040050048828125	-0.10612400054931641	-0.013296899795532226	1.1219200439453125
26	0.8666666666666667	-0.05834809875488281	-0.13457000732421875	1.0791400146484376	-0.05415670013427734	-0.10632900238037109	1.0826199951171875	-0.06912950134277343	-0.08315660095214844	1.09847998046875	-0.07563839721679687	-0.044848400115966795	1.10806005859375	-0.032325000762939454	-0.10001300048828125	0.9728289794921875	-0.04081969833374023	-0.09246340179443359	0.9941539916992187	-0.050084999084472656	-0.0840947036743164	1.0161199951171875	-0.06917530059814453	-0.06971279907226563	1.04927001953125	-0.02619599914550781	-0.05547610092163086	0.9484229736328125	-0.03392649841308594	-0.053693000793457034	0.9745330200195312	-0.04588880157470703	-0.05125329971313477	1.0028499755859375	-0.06777519989013672	-0.04566529846191406	1.03877001953125	-0.026012800216674806	-0.018845399856567382	0.9478839721679687	-0.03467879867553711	-0.019371099472045898	0.9729580078125	-0.046477901458740235	-0.02054770088195801	1.0000999755859374	-0.06399639892578125	-0.021962499618530272	1.03756005859375	-0.02747130012512207	0.029060300827026368	0.979844970703125	-0.038838699340820314	0.021936800003051756	0.9971309814453125	-0.049903499603271485	0.014472000122070313	1.0136900024414062	-0.0619452018737793	0.001077270030975341	1.0402099609375	-0.1061050033569336	-0.013262900352478027	1.1220400390625
